# xmcd
#
# Track frame offsets: 
#        150
#        20342
#        37000
#        62995
#        82617
#        98617
#        122352
#
# Disc length: 1914 seconds
#
# Revision: 0
# Processed by: cddbd v1.4PL0 Copyright (c) Steve Scherf et al.
# Submitted via: ExactAudioCopy v0.90b3
#
DISCID=47077807
DTITLE=Rab McCullough - Belfast Blues
DYEAR=2001
DGENRE=Blues
TTITLE0=Louisiana Woman
TTITLE1=Walkin' Back To You
TTITLE2=Ain't Gonna Be Your Fool
TTITLE3=Trouble
TTITLE4=Mistreatin' Me
TTITLE5=Shame On You
TTITLE6=Further Up The Line
EXTD=
EXTT0=
EXTT1=
EXTT2=
EXTT3=
EXTT4=
EXTT5=
EXTT6=
PLAYORDER=
